<svg width="34" height="23" viewBox="0 0 34 23" fill="none" xmlns="http://www.w3.org/2000/svg">
<path fill-rule="evenodd" clip-rule="evenodd" d="M6.08736 10.4994L17.9817 18.2775C18.9201 18.8914 18.9201 19.8863 17.9817 20.5001C17.0432 21.1135 15.5218 21.1135 14.5833 20.5001L2.68906 12.7215C1.75063 12.1081 1.75063 11.1132 2.68906 10.4994C3.62746 9.88572 5.14896 9.88572 6.08736 10.4994Z" fill="#DADADA"/>
<path fill-rule="evenodd" clip-rule="evenodd" d="M27.8474 10.4534L15.8729 18.2839C14.9282 18.9015 14.9282 19.9035 15.8729 20.5211C16.8177 21.139 18.3495 21.139 19.2942 20.5211L31.2686 12.6906C32.2134 12.0727 32.2134 11.071 31.2686 10.4534C30.3239 9.83551 28.7921 9.83551 27.8474 10.4534Z" fill="#DADADA"/>
<path fill-rule="evenodd" clip-rule="evenodd" d="M8.99739 2.3632L17.7198 8.02001C18.4081 8.46648 18.4081 9.19004 17.7198 9.63629C17.0317 10.0825 15.9159 10.0825 15.2278 9.63629L6.50532 3.97948C5.81706 3.53278 5.81706 2.80945 6.50532 2.3632C7.19345 1.91675 8.30923 1.91675 8.99739 2.3632Z" fill="#DADADA"/>
<path fill-rule="evenodd" clip-rule="evenodd" d="M24.9547 2.3296L16.1735 8.02445C15.4807 8.47401 15.4807 9.20242 16.1735 9.65154C16.8663 10.1011 17.9896 10.1011 18.6824 9.65154L27.4637 3.95669C28.1565 3.50736 28.1565 2.77895 27.4637 2.3296C26.7709 1.88048 25.6475 1.88048 24.9547 2.3296Z" fill="#DADADA"/>
</svg>
