<?xml version="1.0" standalone="no"?>
<!DOCTYPE svg PUBLIC "-//W3C//DTD SVG 20010904//EN"
 "http://www.w3.org/TR/2001/REC-SVG-20010904/DTD/svg10.dtd">
<svg version="1.0" xmlns="http://www.w3.org/2000/svg"
 width="500.000000pt" height="500.000000pt" viewBox="0 0 500.000000 500.000000"
 preserveAspectRatio="xMidYMid meet">
<metadata>
Created by potrace 1.14, written by Peter Selinger 2001-2017
</metadata>
<g transform="translate(0.000000,500.000000) scale(0.100000,-0.100000)"
fill="#000000" stroke="none">
<path d="M1120 3995 l0 -65 135 0 c73 0 157 -5 186 -11 62 -13 118 -60 147
-122 10 -23 232 -640 492 -1370 l474 -1328 50 3 51 3 421 1295 c231 712 431
1315 443 1339 34 66 105 136 164 161 41 18 77 24 170 28 l118 5 -3 61 -3 61
-545 0 -545 0 -3 -61 -3 -62 143 -4 c164 -4 204 -17 244 -77 36 -56 47 -125
34 -219 -16 -121 -21 -138 -286 -952 -136 -415 -255 -784 -266 -819 -14 -45
-23 -60 -28 -50 -5 7 -164 452 -354 988 -255 717 -346 986 -346 1018 0 89 56
113 263 113 l137 0 0 65 0 65 -645 0 -645 0 0 -65z"/>
</g>
</svg>
